<svg xmlns="http://www.w3.org/2000/svg"><style>:root svg:not(:target){display:none}</style><svg fill="none" id="icon-copyright" viewBox="0 0 26 26"><path d="M12.87 9.902c1.387.065 1.744 1.246 1.766 1.798h1.939c-.087-2.145-1.614-3.456-3.737-3.456-2.395 0-4.171 1.506-4.171 4.908 0 2.101 1.007 4.593 4.16 4.593 2.405 0 3.694-1.787 3.726-3.196h-1.939c-.032.64-.487 1.495-1.766 1.56-1.419-.043-2.015-1.148-2.015-2.957 0-3.131 1.387-3.229 2.037-3.25ZM13 2.167C7.02 2.167 2.167 7.02 2.167 13S7.02 23.833 13 23.833 23.833 18.98 23.833 13 18.98 2.167 13 2.167Zm0 19.5c-4.778 0-8.667-3.89-8.667-8.667 0-4.777 3.89-8.667 8.667-8.667 4.777 0 8.667 3.89 8.667 8.667 0 4.778-3.89 8.667-8.667 8.667Z" fill="currentColor"></path></svg><svg fill="none" id="logo" viewBox="0 0 60 60"><path d="m6.595 27.673 5.002-4.624 15.351 14.197.636.587v17.874L32.227 60V46.71h.02v-8.878l.636-.588 15.366-14.207 5.156 4.767H60L36.798 6.348v6.098l8.485 7.845-13.034 12.052V19.136h-.02V2.123L29.931 0l-3.298 3.049L0 27.673h6.595Zm20.99-19.406v24.076l-13.02-12.037 13.02-12.039Z" fill="currentColor"></path></svg></svg>