<svg width="60" height="60" fill="none" xmlns="http://www.w3.org/2000/svg"><path d="m6.595 27.673 5.002-4.624 15.351 14.197.636.587v17.874L32.227 60V46.71h.02v-8.878l.636-.588 15.366-14.207 5.156 4.767H60L36.798 6.348v6.098l8.485 7.845-13.034 12.052V19.136h-.02V2.123L29.931 0l-3.298 3.049L0 27.673h6.595Zm20.99-19.406v24.076l-13.02-12.037 13.02-12.039Z" fill="#0AF2DC"/><path d="M25.4 41.72c0 .96-.24 1.84-.72 2.64s-1.12 1.44-1.92 1.92c-.8.48-1.68.72-2.64.72h-7.2c-.96 0-1.853-.24-2.68-.72-.8-.48-1.44-1.12-1.92-1.92-.48-.8-.72-1.68-.72-2.64v-2.88c0-.507.173-.933.52-1.28.373-.373.813-.56 1.32-.56h1.12c.507 0 .933.187 1.28.56.373.347.56.773.56 1.28v2.88a.64.64 0 0 0 .16.4c.107.107.227.16.36.16h7.2a.497.497 0 0 0 .36-.16.64.64 0 0 0 .16-.4V21.8c0-.533.173-.973.52-1.32.373-.347.813-.52 1.32-.52h1.08c.533 0 .973.173 1.32.52.347.347.52.787.52 1.32v19.92Zm21.575 0c0 .96-.24 1.84-.72 2.64s-1.12 1.44-1.92 1.92c-.8.48-1.68.72-2.64.72h-7.68c-.96 0-1.854-.24-2.68-.72-.8-.48-1.44-1.12-1.92-1.92-.48-.8-.72-1.68-.72-2.64v-1.2c0-.507.173-.933.52-1.28.373-.373.813-.56 1.32-.56h1.12c.48 0 .893.187 1.24.56.373.347.56.773.56 1.28v1.2a.64.64 0 0 0 .16.4.64.64 0 0 0 .4.16h7.68a.497.497 0 0 0 .36-.16.64.64 0 0 0 .16-.4v-3.64c0-.293-.134-.48-.4-.56l-9.6-3.6a5.054 5.054 0 0 1-2.56-1.96 5.33 5.33 0 0 1-.96-3.08v-3.6c0-.987.24-1.88.72-2.68.48-.8 1.12-1.44 1.92-1.92.826-.48 1.72-.72 2.68-.72h7.68c.96 0 1.84.24 2.64.72s1.44 1.12 1.92 1.92c.48.8.72 1.693.72 2.68v1.08c0 .507-.187.933-.56 1.28a1.74 1.74 0 0 1-1.28.52h-1.08c-.507 0-.947-.173-1.32-.52a1.74 1.74 0 0 1-.52-1.28v-1.08c0-.373-.174-.56-.52-.56h-7.68a.64.64 0 0 0-.4.16.543.543 0 0 0-.16.4v3.6c0 .32.133.52.4.6l9.64 3.6a5.07 5.07 0 0 1 2.52 1.96c.64.933.96 1.947.96 3.04v3.64Z" fill="#fff"/><path d="m24.68 44.36-.857-.514.857.514Zm-14.44 1.92-.514.858.006.003.006.004.502-.865Zm-1.92-1.92-.857.514.857-.514Zm-.2-6.8-.707-.707.707.707Zm3.72 0-.733.68.025.028.027.025.681-.733Zm.72 4.56-.78.625.034.043.039.04.707-.708Zm7.92 0 .707.707.04-.04.034-.042-.781-.625Zm.68-21.64-.68-.733-.014.013-.013.013.707.707Zm3.72 0 .707-.707-.707.707Zm-.48 21.24c0 .784-.194 1.486-.577 2.126l1.715 1.029c.575-.96.862-2.02.862-3.155h-2Zm-.577 2.126a4.514 4.514 0 0 1-1.578 1.577l1.03 1.715a6.517 6.517 0 0 0 2.263-2.264l-1.715-1.029Zm-1.578 1.577A4.035 4.035 0 0 1 20.12 46v2a6.035 6.035 0 0 0 3.154-.862l-1.029-1.715ZM20.12 46h-7.2v2h7.2v-2Zm-7.2 0a4.246 4.246 0 0 1-2.178-.585l-1.004 1.73c.98.569 2.046.855 3.182.855v-2Zm-2.165-.578a4.514 4.514 0 0 1-1.578-1.576l-1.714 1.029a6.516 6.516 0 0 0 2.263 2.263l1.028-1.715Zm-1.578-1.576A4.036 4.036 0 0 1 8.6 41.72h-2c0 1.136.286 2.194.863 3.154l1.714-1.029ZM8.6 41.72v-2.88h-2v2.88h2Zm0-2.88c0-.251.075-.42.227-.573l-1.414-1.414A2.738 2.738 0 0 0 6.6 38.84h2Zm.227-.573c.195-.195.384-.267.613-.267v-2c-.784 0-1.475.3-2.027.853l1.414 1.414ZM9.44 38h1.12v-2H9.44v2Zm1.12 0c.227 0 .389.07.547.24l1.466-1.36A2.677 2.677 0 0 0 10.56 36v2Zm.6.293c.17.158.24.32.24.547h2c0-.787-.304-1.478-.88-2.013l-1.36 1.466Zm.24.547v2.88h2v-2.88h-2Zm0 2.88c0 .418.171.765.38 1.025l1.56-1.25c-.002-.004.012.014.028.054a.467.467 0 0 1 .032.171h-2Zm.453 1.107c.267.267.633.453 1.067.453v-2c.071 0 .146.015.216.046.068.03.11.066.131.087l-1.414 1.414Zm1.067.453h7.2v-2h-7.2v2Zm7.2 0c.434 0 .8-.186 1.067-.453l-1.414-1.414a.437.437 0 0 1 .13-.087.536.536 0 0 1 .217-.046v2Zm1.14-.535c.209-.26.38-.607.38-1.025h-2c0-.07.015-.13.032-.171.015-.04.03-.058.027-.054l1.562 1.25Zm.38-1.025V21.8h-2v19.92h2Zm0-19.92c0-.294.085-.471.227-.613l-1.414-1.414c-.552.552-.813 1.254-.813 2.027h2Zm.2-.587a.878.878 0 0 1 .64-.253v-2c-.76 0-1.443.27-2 .787l1.36 1.466Zm.64-.253h1.08v-2h-1.08v2Zm1.08 0c.294 0 .471.085.613.227l1.414-1.414c-.552-.552-1.254-.813-2.027-.813v2Zm.613.227c.142.142.227.32.227.613h2c0-.773-.261-1.476-.813-2.027l-1.414 1.414Zm.227.613v19.92h2V21.8h-2Zm21.855 22.56.857.514-.857-.514Zm-14.92 1.92-.515.858.006.003.007.004.502-.865Zm-1.92-1.92-.858.514.858-.514Zm-.2-5.12.707.707-.707-.707Zm3.68 0-.733.68.025.028.027.025.68-.733Zm.72 2.88-.781.625.07.087.086.069.625-.781Zm8.44 0 .707.707.039-.04.035-.042-.781-.625Zm-.24-4.6-.351.936.031.012.032.01.288-.958Zm-9.6-3.6.35-.936-.01-.004-.01-.004-.33.944Zm-2.56-1.96.824-.566-.824.566Zm-.24-9.36.857.514-.857-.514Zm1.92-1.92-.502-.865-.007.004-.006.004.515.857Zm14.92 1.92-.858.514.858-.514Zm.16 5.04-.68-.733-.014.013-.013.013.707.707Zm-3.68 0-.707.707.013.013.013.013.68-.733Zm-9.12-2.76-.625-.78-.043.034-.04.039.708.707Zm.24 4.6.35-.937-.031-.011-.032-.01-.287.958Zm9.64 3.6-.35.937.012.004.338-.941Zm2.52 1.96.824-.566-.824.566Zm-.04 6.68c0 .784-.194 1.486-.578 2.126l1.715 1.029c.576-.96.863-2.02.863-3.155h-2Zm-.578 2.126a4.516 4.516 0 0 1-1.577 1.577l1.03 1.715a6.517 6.517 0 0 0 2.262-2.264l-1.715-1.029Zm-1.577 1.577a4.035 4.035 0 0 1-2.125.577v2a6.035 6.035 0 0 0 3.154-.862l-1.029-1.715ZM41.695 46h-7.68v2h7.68v-2Zm-7.68 0a4.246 4.246 0 0 1-2.178-.585l-1.004 1.73c.98.569 2.046.855 3.182.855v-2Zm-2.166-.578a4.514 4.514 0 0 1-1.577-1.576l-1.715 1.029a6.515 6.515 0 0 0 2.263 2.263l1.03-1.715Zm-1.577-1.576a4.035 4.035 0 0 1-.577-2.126h-2c0 1.136.286 2.194.862 3.154l1.715-1.029Zm-.577-2.126v-1.2h-2v1.2h2Zm0-1.2c0-.251.075-.42.227-.573l-1.414-1.414a2.738 2.738 0 0 0-.813 1.987h2Zm.227-.573c.194-.195.383-.267.613-.267v-2c-.784 0-1.475.3-2.027.853l1.414 1.414Zm.613-.267h1.12v-2h-1.12v2Zm1.12 0c.183 0 .336.057.507.24l1.465-1.36c-.522-.564-1.196-.88-1.972-.88v2Zm.56.293c.17.158.24.32.24.547h2c0-.787-.304-1.478-.88-2.013l-1.36 1.466Zm.24.547v1.2h2v-1.2h-2Zm0 1.2c0 .418.17.765.379 1.025l1.562-1.25c-.004-.004.011.014.027.054a.467.467 0 0 1 .032.171h-2Zm.535 1.18c.26.209.607.38 1.025.38v-2c.07 0 .129.015.171.032.04.016.057.03.053.027l-1.249 1.562Zm1.025.38h7.68v-2h-7.68v2Zm7.68 0c.434 0 .8-.186 1.067-.453l-1.414-1.414a.437.437 0 0 1 .13-.087.536.536 0 0 1 .217-.046v2Zm1.14-.535c.209-.26.38-.607.38-1.025h-2c0-.07.014-.13.031-.171.016-.04.031-.058.028-.054l1.562 1.25Zm.38-1.025v-3.64h-2v3.64h2Zm0-3.64a1.6 1.6 0 0 0-.287-.941 1.543 1.543 0 0 0-.826-.577l-.575 1.916a.466.466 0 0 1-.226-.177.422.422 0 0 1-.086-.221h2Zm-1.05-1.496-9.6-3.6-.701 1.872 9.6 3.6.702-1.872Zm-9.62-3.608a4.055 4.055 0 0 1-2.066-1.581l-1.649 1.13a6.053 6.053 0 0 0 3.054 2.339l.661-1.888Zm-2.066-1.581a4.33 4.33 0 0 1-.784-2.515h-2a6.33 6.33 0 0 0 1.135 3.646l1.65-1.132Zm-.784-2.515v-3.6h-2v3.6h2Zm0-3.6c0-.816.196-1.53.577-2.166l-1.715-1.029c-.578.965-.862 2.038-.862 3.195h2Zm.577-2.166a4.514 4.514 0 0 1 1.577-1.576l-1.029-1.715a6.515 6.515 0 0 0-2.263 2.262l1.715 1.03Zm1.565-1.57a4.246 4.246 0 0 1 2.178-.584v-2a6.245 6.245 0 0 0-3.182.855l1.004 1.73Zm2.178-.584h7.68v-2h-7.68v2Zm7.68 0c.784 0 1.485.194 2.125.578l1.03-1.715a6.035 6.035 0 0 0-3.155-.863v2Zm2.125.578c.66.395 1.182.917 1.577 1.576l1.715-1.029a6.517 6.517 0 0 0-2.263-2.262l-1.029 1.715Zm1.577 1.576c.382.636.578 1.35.578 2.166h2c0-1.157-.284-2.23-.863-3.195l-1.715 1.03Zm.578 2.166v1.08h2v-1.08h-2Zm0 1.08c0 .227-.07.389-.24.547l1.36 1.466c.576-.535.88-1.227.88-2.013h-2Zm-.267.573a.743.743 0 0 1-.573.227v2c.762 0 1.446-.272 1.987-.813l-1.414-1.414Zm-.573.227h-1.08v2h1.08v-2Zm-1.08 0a.879.879 0 0 1-.64-.253l-1.36 1.466c.556.517 1.24.787 2 .787v-2Zm-.613-.227a.743.743 0 0 1-.227-.573h-2c0 .762.271 1.446.813 1.987l1.414-1.414Zm-.227-.573v-1.08h-2v1.08h2Zm0-1.08c0-.323-.074-.752-.398-1.1-.336-.363-.775-.46-1.122-.46v2s-.18-.004-.343-.18c-.15-.162-.137-.31-.137-.26h2Zm-1.52-1.56h-7.68v2h7.68v-2Zm-7.68 0c-.418 0-.765.171-1.025.38l1.25 1.56c.003-.002-.014.012-.054.029a.467.467 0 0 1-.171.031v-2Zm-1.107.453c-.307.306-.453.7-.453 1.107h2a.468.468 0 0 1-.133.307l-1.414-1.414Zm-.453 1.107v3.6h2v-3.6h-2Zm0 3.6c0 .293.06.634.268.945.215.323.525.517.844.613l.575-1.916a.48.48 0 0 1 .245.193c.073.11.068.192.068.165h-2Zm1.05 1.537 9.64 3.6.7-1.874-9.64-3.6-.7 1.874Zm9.652 3.604c.837.3 1.509.82 2.033 1.584l1.65-1.13a6.069 6.069 0 0 0-3.007-2.336l-.676 1.882Zm2.033 1.584c.53.774.785 1.59.785 2.475h2c0-1.303-.386-2.512-1.136-3.605l-1.649 1.13Zm.785 2.475v3.64h2v-3.64h-2Z" fill="#000"/></svg>