<svg version="1.0" xmlns="http://www.w3.org/2000/svg" width="933.333" height="933.333" viewBox="0 0 700 700"><path d="M346.9 1.8c-.8.9-4.7 4.6-8.5 8.2-15.4 14.3-29.7 27.6-30.8 28.5-.6.5-7 6.4-14.1 13s-13.5 12.4-14.1 13c-.7.5-3.6 3.3-6.5 6-3 2.8-9 8.4-13.4 12.5-4.4 4-11 10.1-14.6 13.4-3.6 3.4-9 8.3-12 11.1-3 2.7-8.8 8.1-12.9 12-4.1 3.8-12.7 11.7-18.9 17.5-6.3 5.8-13.1 12.1-15.2 14-2 1.9-6.1 5.7-9 8.4-3 2.7-10.1 9.3-15.9 14.7-5.8 5.3-11.4 10.6-12.6 11.6-1.2 1-7.2 6.5-13.4 12.3-6.2 5.8-12.5 11.6-14 13-2.7 2.4-23.2 21.5-25.4 23.5-.6.6-6.7 6.2-13.6 12.5-6.9 6.3-13.7 12.6-15.1 14-3.1 2.9-9.6 8.9-23.9 22.2-5.8 5.3-11.9 10.9-13.6 12.5-1.6 1.5-8.3 7.7-14.8 13.8-6.5 6-12.2 11.1-12.7 11.3-.5.2-.9.8-.9 1.3s15.5.9 37.8.9h37.7l2.7-2.3c2.4-2.1 18.4-16.8 27.9-25.7 4.8-4.5 21.2-19.7 25.2-23.2l3-2.8 4.1 3.7c2.3 2 6.1 5.6 8.6 7.9 2.5 2.3 6.1 5.6 8 7.4 1.9 1.8 8.5 7.8 14.5 13.5 6.1 5.6 13.7 12.6 16.9 15.6 7.4 6.8 8.8 8 22.7 21 6.3 5.8 13.1 12.1 15.2 13.8l3.7 3.3V481.5h-36.4l-36.4.1.2-13.6c.2-17.2-.7-24-4.1-30.2-3.2-5.9-9.9-12.1-16.3-15.2-4-1.9-6.2-2.1-19.5-2.1s-15.5.2-19.5 2.2c-6.9 3.3-13.6 9.7-16.7 16.1-2.8 5.7-2.8 5.7-3.1 29.4-.4 31.9 1.6 42.4 10.9 56.9 10.8 16.6 27 28.3 45.6 32.8 7.1 1.8 12.3 1.9 58.9 2h51.1l9.4-2.5c23.7-6.3 43.8-25.3 51.6-48.9 2.6-7.9 2.7-8.5 3-40.5.2-17.9.5-34 .6-35.7l.2-3.2 6.7 6.3 6.8 6.3-.2 104-.1 104 5.4 5.1c3 2.7 7 6.4 8.9 8.2 1.9 1.8 7.9 7.3 13.3 12.4 5.5 5 11.1 10.2 12.6 11.6 1.5 1.4 5.3 4.9 8.4 7.8l5.7 5.4V557.1l2.3.5c1.2.3 4.2.9 6.7 1.4 5.1 1.1 112.3.8 115.8-.3 1.2-.4 3.1-.9 4.3-1.2 7.8-1.7 19-7.5 26.9-13.8 8.5-6.9 15.2-15.3 20.1-25.2 6.9-14.1 7.3-17 7.3-52.5 0-27.4-.2-32.5-1.8-39-3.8-15.3-14.3-31.6-26.4-41-5.3-4.1-19.7-12-21.9-12-.5 0-9.1-3.2-19.3-7.1-10.2-3.9-19.5-7.3-20.7-7.6-1.3-.3-2.3-.8-2.3-1.2 0-.6 6.2-6.4 22-20.9 4.4-4 4.4-4 7-2.2 1.4 1 4.7 2.5 7.5 3.4 6.6 2.3 25.3 2.4 32.8.2 10.4-3 19.9-12.9 22.3-23.2 1.5-6.4 1.1-30.1-.6-36.3-1.1-4.1-1-4.5 1.6-7.2 1.6-1.6 3.1-2.8 3.5-2.7.6.3 12 10.7 24.7 22.5 4.6 4.4 22.3 20.7 29.6 27.4l5.8 5.4h37.5c20.6 0 37.7-.3 37.9-.6.2-.4-3.8-4.4-8.8-9-5-4.6-10.3-9.5-11.8-10.9-1.5-1.4-7.4-6.8-13-12-5.7-5.2-11-10.2-11.9-11-.9-.9-7.2-6.7-14.1-13-6.9-6.3-13.9-12.9-15.6-14.5-1.7-1.7-6.5-6-10.6-9.8-4.1-3.7-9.5-8.6-11.9-11-2.5-2.3-9.6-8.9-15.9-14.7-6.3-5.8-12.4-11.4-13.6-12.5-1.1-1.1-4.8-4.5-8-7.5-20.3-18.8-28.1-26.1-30-27.7-1.2-1-7-6.4-13-12-6-5.5-12.2-11.3-13.9-12.8-1.6-1.6-8.1-7.6-14.4-13.4-6.3-5.8-12.2-11.3-13.1-12.1-1-.8-6.8-6.2-13-12s-12.5-11.6-14-13c-1.5-1.4-6.9-6.3-11.9-11-5.1-4.7-9.6-8.6-10-8.8-.4-.1-.8 15.6-.8 34.9v35.2l4.1 3.7c2.3 2.1 5.5 5 7.1 6.5 1.7 1.5 8 7.4 14 13 6.1 5.6 12.2 11.3 13.6 12.6 1.5 1.3 7.1 6.5 12.5 11.5 5.5 5.1 11.3 10.4 12.9 11.9 13.1 12.1 24.5 22.9 24.2 23.1-.2.2-2.8-.6-5.8-1.7-11.7-4.5-16.3-4.8-72.9-4.5-29.4.1-54.8.6-56.5 1-1.6.4-3.8.9-4.7 1.2-1.7.5-1.8-4.7-1.8-99.3V24.4l-2.2-1.8c-1.3-1.1-7.3-6.6-13.4-12.3C354.3 4.6 349.1 0 348.9.1c-.2 0-1.1.8-2 1.7zm-25 235.3v140.2l-2.7-2.4c-1.4-1.3-4.6-4.2-6.9-6.4l-4.3-4-.2-59.5c-.3-58.6-.3-59.6-2.5-64.2-3-6.6-9.3-13-16-16.3-5.4-2.7-6.7-2.9-19.3-3.1-11.4-.1-14.3.1-19.2 1.9-7.6 2.7-14.6 9-18.3 16.3l-3 5.9-.5 22.7-.5 22.7-4-3.6c-2.2-1.9-8.7-7.9-14.5-13.3-5.8-5.4-11.6-10.8-13-12-1.4-1.2-8-7.4-14.8-13.7L170 236.7l3.2-2.9c3.8-3.4 21.4-19.6 30.8-28.4 3.6-3.3 8.8-8.1 11.5-10.6 2.8-2.6 7.1-6.6 9.6-9 2.6-2.4 6.6-6.1 9-8.3 8.6-7.8 29.4-27 32.6-30 1.7-1.6 5.1-4.8 7.5-7 2.4-2.2 9.5-8.8 15.8-14.7 6.3-5.8 12.9-11.8 14.5-13.4 1.7-1.5 6.1-5.6 9.8-9 3.8-3.5 7-6.4 7.2-6.4.2 0 .3 63.1.4 140.1zm129.9 70.2c-10.2 9.6-26.4 24.6-31.2 28.9l-3.9 3.5-7.1-2.7-7.1-2.7-.3-17.2-.2-17.1h57.5l-7.7 7.3zm-10.3 125.5 39 14.7v34h-38.9c-25.1 0-39-.4-39.2-1-.1-.5-.5-4.5-.7-8.7-.8-12.8-7.5-23-18.6-28.6l-5.9-2.9 6.5-5.9c3.5-3.3 9-8.2 12.1-11.1 3.1-2.9 5.9-5.2 6.2-5.2.3 0 18.1 6.6 39.5 14.7z"/></svg>