<svg width="60" height="60" viewBox="0 0 60 60" fill="none" xmlns="http://www.w3.org/2000/svg">
<path d="M6.59514 27.6731L11.5969 23.0488L26.9482 37.2456L27.5836 37.8331V55.7072L32.2268 60V46.7106H32.2475V37.8318L32.883 37.2443L48.2495 23.0372L53.4049 27.8037H60L36.798 6.34839V12.4459L45.2828 20.2905L32.2489 32.3435V19.1348H32.2281V2.12338L29.9315 0L26.6339 3.04876L0 27.6731H6.59514ZM27.585 8.26699V32.3435L14.565 20.3059L27.585 8.26699Z" fill="#0AF2DC"/>
<path d="M25.4 41.72C25.4 42.68 25.16 43.56 24.68 44.36C24.2 45.16 23.56 45.8 22.76 46.28C21.96 46.76 21.08 47 20.12 47H12.92C11.96 47 11.0667 46.76 10.24 46.28C9.44 45.8 8.8 45.16 8.32 44.36C7.84 43.56 7.6 42.68 7.6 41.72V38.84C7.6 38.3333 7.77333 37.9067 8.12 37.56C8.49333 37.1867 8.93333 37 9.44 37H10.56C11.0667 37 11.4933 37.1867 11.84 37.56C12.2133 37.9067 12.4 38.3333 12.4 38.84V41.72C12.4 41.8533 12.4533 41.9867 12.56 42.12C12.6667 42.2267 12.7867 42.28 12.92 42.28H20.12C20.2533 42.28 20.3733 42.2267 20.48 42.12C20.5867 41.9867 20.64 41.8533 20.64 41.72V21.8C20.64 21.2667 20.8133 20.8267 21.16 20.48C21.5333 20.1333 21.9733 19.96 22.48 19.96H23.56C24.0933 19.96 24.5333 20.1333 24.88 20.48C25.2267 20.8267 25.4 21.2667 25.4 21.8V41.72ZM46.9747 41.72C46.9747 42.68 46.7347 43.56 46.2547 44.36C45.7747 45.16 45.1347 45.8 44.3347 46.28C43.5347 46.76 42.6547 47 41.6947 47H34.0147C33.0547 47 32.1614 46.76 31.3347 46.28C30.5347 45.8 29.8947 45.16 29.4147 44.36C28.9347 43.56 28.6947 42.68 28.6947 41.72V40.52C28.6947 40.0133 28.868 39.5867 29.2147 39.24C29.588 38.8667 30.028 38.68 30.5347 38.68H31.6547C32.1347 38.68 32.548 38.8667 32.8947 39.24C33.268 39.5867 33.4547 40.0133 33.4547 40.52V41.72C33.4547 41.8533 33.508 41.9867 33.6147 42.12C33.748 42.2267 33.8814 42.28 34.0147 42.28H41.6947C41.828 42.28 41.948 42.2267 42.0547 42.12C42.1614 41.9867 42.2147 41.8533 42.2147 41.72V38.08C42.2147 37.7867 42.0814 37.6 41.8147 37.52L32.2147 33.92C31.148 33.5467 30.2947 32.8933 29.6547 31.96C29.0147 31.0267 28.6947 30 28.6947 28.88V25.28C28.6947 24.2933 28.9347 23.4 29.4147 22.6C29.8947 21.8 30.5347 21.16 31.3347 20.68C32.1614 20.2 33.0547 19.96 34.0147 19.96H41.6947C42.6547 19.96 43.5347 20.2 44.3347 20.68C45.1347 21.16 45.7747 21.8 46.2547 22.6C46.7347 23.4 46.9747 24.2933 46.9747 25.28V26.36C46.9747 26.8667 46.788 27.2933 46.4147 27.64C46.068 27.9867 45.6414 28.16 45.1347 28.16H44.0547C43.548 28.16 43.108 27.9867 42.7347 27.64C42.388 27.2933 42.2147 26.8667 42.2147 26.36V25.28C42.2147 24.9067 42.0414 24.72 41.6947 24.72H34.0147C33.8814 24.72 33.748 24.7733 33.6147 24.88C33.508 24.9867 33.4547 25.12 33.4547 25.28V28.88C33.4547 29.2 33.588 29.4 33.8547 29.48L43.4947 33.08C44.5347 33.4533 45.3747 34.1067 46.0147 35.04C46.6547 35.9733 46.9747 36.9867 46.9747 38.08V41.72Z" fill="white"/>
<path d="M24.68 44.36L23.8225 43.8455L23.8225 43.8455L24.68 44.36ZM10.24 46.28L9.7255 47.1375L9.73166 47.1412L9.73786 47.1448L10.24 46.28ZM8.32 44.36L7.46251 44.8745L7.46251 44.8745L8.32 44.36ZM8.12 37.56L7.41289 36.8529L7.41289 36.8529L8.12 37.56ZM11.84 37.56L11.1072 38.2405L11.1324 38.2676L11.1595 38.2928L11.84 37.56ZM12.56 42.12L11.7791 42.7447L11.8137 42.7879L11.8529 42.8271L12.56 42.12ZM20.48 42.12L21.1871 42.8271L21.2263 42.7879L21.2609 42.7447L20.48 42.12ZM21.16 20.48L20.4795 19.7472L20.466 19.7598L20.4529 19.7729L21.16 20.48ZM24.88 20.48L25.5871 19.7729L25.5871 19.7729L24.88 20.48ZM24.4 41.72C24.4 42.5043 24.2065 43.2056 23.8225 43.8455L25.5375 44.8745C26.1135 43.9144 26.4 42.8557 26.4 41.72H24.4ZM23.8225 43.8455C23.427 44.5048 22.9048 45.027 22.2455 45.4225L23.2745 47.1375C24.2152 46.573 24.973 45.8152 25.5375 44.8745L23.8225 43.8455ZM22.2455 45.4225C21.6056 45.8065 20.9043 46 20.12 46V48C21.2557 48 22.3144 47.7135 23.2745 47.1375L22.2455 45.4225ZM20.12 46H12.92V48H20.12V46ZM12.92 46C12.1356 46 11.4156 45.8063 10.7421 45.4152L9.73786 47.1448C10.7177 47.7137 11.7844 48 12.92 48V46ZM10.7545 45.4225C10.0952 45.027 9.57304 44.5048 9.17749 43.8455L7.46251 44.8745C8.02696 45.8152 8.78475 46.573 9.7255 47.1375L10.7545 45.4225ZM9.17749 43.8455C8.79354 43.2056 8.6 42.5043 8.6 41.72H6.6C6.6 42.8557 6.88646 43.9144 7.46251 44.8745L9.17749 43.8455ZM8.6 41.72V38.84H6.6V41.72H8.6ZM8.6 38.84C8.6 38.5886 8.67488 38.4193 8.82711 38.2671L7.41289 36.8529C6.87179 37.394 6.6 38.078 6.6 38.84H8.6ZM8.82711 38.2671C9.0217 38.0725 9.21073 38 9.44 38V36C8.65593 36 7.96497 36.3008 7.41289 36.8529L8.82711 38.2671ZM9.44 38H10.56V36H9.44V38ZM10.56 38C10.7869 38 10.9486 38.0696 11.1072 38.2405L12.5728 36.8795C12.0381 36.3037 11.3465 36 10.56 36V38ZM11.1595 38.2928C11.3304 38.4514 11.4 38.6131 11.4 38.84H13.4C13.4 38.0535 13.0963 37.3619 12.5205 36.8272L11.1595 38.2928ZM11.4 38.84V41.72H13.4V38.84H11.4ZM11.4 41.72C11.4 42.1376 11.571 42.4846 11.7791 42.7447L13.3409 41.4953C13.3377 41.4913 13.3525 41.5087 13.3685 41.5486C13.3854 41.5909 13.4 41.6499 13.4 41.72H11.4ZM11.8529 42.8271C12.1202 43.0945 12.4858 43.28 12.92 43.28V41.28C12.991 41.28 13.0663 41.2951 13.1361 41.3262C13.2037 41.3562 13.2464 41.3922 13.2671 41.4129L11.8529 42.8271ZM12.92 43.28H20.12V41.28H12.92V43.28ZM20.12 43.28C20.5542 43.28 20.9198 43.0945 21.1871 42.8271L19.7729 41.4129C19.7936 41.3922 19.8363 41.3562 19.9039 41.3262C19.9737 41.2951 20.049 41.28 20.12 41.28V43.28ZM21.2609 42.7447C21.469 42.4846 21.64 42.1376 21.64 41.72H19.64C19.64 41.6499 19.6546 41.5909 19.6715 41.5486C19.6875 41.5087 19.7023 41.4913 19.6991 41.4953L21.2609 42.7447ZM21.64 41.72V21.8H19.64V41.72H21.64ZM21.64 21.8C21.64 21.5062 21.7254 21.3288 21.8671 21.1871L20.4529 19.7729C19.9013 20.3245 19.64 21.0271 19.64 21.8H21.64ZM21.8405 21.2128C22.03 21.0368 22.2273 20.96 22.48 20.96V18.96C21.7194 18.96 21.0367 19.2298 20.4795 19.7472L21.8405 21.2128ZM22.48 20.96H23.56V18.96H22.48V20.96ZM23.56 20.96C23.8538 20.96 24.0312 21.0454 24.1729 21.1871L25.5871 19.7729C25.0355 19.2213 24.3329 18.96 23.56 18.96V20.96ZM24.1729 21.1871C24.3146 21.3288 24.4 21.5062 24.4 21.8H26.4C26.4 21.0271 26.1387 20.3245 25.5871 19.7729L24.1729 21.1871ZM24.4 21.8V41.72H26.4V21.8H24.4ZM46.2547 44.36L47.1122 44.8745L47.1122 44.8745L46.2547 44.36ZM31.3347 46.28L30.8202 47.1375L30.8263 47.1412L30.8326 47.1448L31.3347 46.28ZM29.4147 44.36L28.5572 44.8745L28.5572 44.8745L29.4147 44.36ZM29.2147 39.24L29.9218 39.9471L29.2147 39.24ZM32.8947 39.24L32.1619 39.9205L32.1871 39.9476L32.2142 39.9728L32.8947 39.24ZM33.6147 42.12L32.8338 42.7447L32.9032 42.8315L32.99 42.9009L33.6147 42.12ZM42.0547 42.12L42.7618 42.8271L42.801 42.7879L42.8356 42.7447L42.0547 42.12ZM41.8147 37.52L41.4636 38.4563L41.4951 38.4682L41.5273 38.4778L41.8147 37.52ZM32.2147 33.92L32.5658 32.9837L32.5555 32.9798L32.545 32.9761L32.2147 33.92ZM29.6547 31.96L30.4794 31.3945L30.4794 31.3945L29.6547 31.96ZM29.4147 22.6L30.2722 23.1145L30.2722 23.1145L29.4147 22.6ZM31.3347 20.68L30.8326 19.8152L30.8263 19.8188L30.8202 19.8225L31.3347 20.68ZM46.2547 22.6L45.3972 23.1145L45.3972 23.1145L46.2547 22.6ZM46.4147 27.64L45.7342 26.9072L45.7207 26.9198L45.7076 26.9329L46.4147 27.64ZM42.7347 27.64L42.0276 28.3471L42.0407 28.3602L42.0542 28.3728L42.7347 27.64ZM33.6147 24.88L32.99 24.0991L32.9467 24.1337L32.9076 24.1729L33.6147 24.88ZM33.8547 29.48L34.2045 28.5432L34.1736 28.5317L34.142 28.5222L33.8547 29.48ZM43.4947 33.08L43.1448 34.0169L43.1568 34.0212L43.4947 33.08ZM46.0147 35.04L46.8394 34.4745L46.8394 34.4745L46.0147 35.04ZM45.9747 41.72C45.9747 42.5043 45.7811 43.2056 45.3972 43.8455L47.1122 44.8745C47.6882 43.9144 47.9747 42.8557 47.9747 41.72H45.9747ZM45.3972 43.8455C45.0016 44.5048 44.4794 45.027 43.8202 45.4225L44.8492 47.1375C45.7899 46.573 46.5477 45.8152 47.1122 44.8745L45.3972 43.8455ZM43.8202 45.4225C43.1803 45.8065 42.479 46 41.6947 46V48C42.8304 48 43.8891 47.7135 44.8492 47.1375L43.8202 45.4225ZM41.6947 46H34.0147V48H41.6947V46ZM34.0147 46C33.2303 46 32.5103 45.8063 31.8368 45.4152L30.8326 47.1448C31.8124 47.7137 32.8791 48 34.0147 48V46ZM31.8492 45.4225C31.1899 45.027 30.6677 44.5048 30.2722 43.8455L28.5572 44.8745C29.1216 45.8152 29.8794 46.573 30.8202 47.1375L31.8492 45.4225ZM30.2722 43.8455C29.8882 43.2056 29.6947 42.5043 29.6947 41.72H27.6947C27.6947 42.8557 27.9811 43.9144 28.5572 44.8745L30.2722 43.8455ZM29.6947 41.72V40.52H27.6947V41.72H29.6947ZM29.6947 40.52C29.6947 40.2686 29.7696 40.0993 29.9218 39.9471L28.5076 38.5329C27.9665 39.074 27.6947 39.758 27.6947 40.52H29.6947ZM29.9218 39.9471C30.1164 39.7525 30.3054 39.68 30.5347 39.68V37.68C29.7506 37.68 29.0597 37.9808 28.5076 38.5329L29.9218 39.9471ZM30.5347 39.68H31.6547V37.68H30.5347V39.68ZM31.6547 39.68C31.838 39.68 31.9914 39.7368 32.1619 39.9205L33.6275 38.5595C33.1046 37.9965 32.4314 37.68 31.6547 37.68V39.68ZM32.2142 39.9728C32.3851 40.1314 32.4547 40.2931 32.4547 40.52H34.4547C34.4547 39.7335 34.151 39.0419 33.5751 38.5072L32.2142 39.9728ZM32.4547 40.52V41.72H34.4547V40.52H32.4547ZM32.4547 41.72C32.4547 42.1376 32.6257 42.4846 32.8338 42.7447L34.3956 41.4953C34.3924 41.4913 34.4072 41.5087 34.4232 41.5486C34.4401 41.5909 34.4547 41.6499 34.4547 41.72H32.4547ZM32.99 42.9009C33.2501 43.109 33.5971 43.28 34.0147 43.28V41.28C34.0848 41.28 34.1438 41.2946 34.1861 41.3115C34.226 41.3275 34.2434 41.3423 34.2394 41.3391L32.99 42.9009ZM34.0147 43.28H41.6947V41.28H34.0147V43.28ZM41.6947 43.28C42.1289 43.28 42.4944 43.0945 42.7618 42.8271L41.3476 41.4129C41.3683 41.3922 41.411 41.3562 41.4786 41.3262C41.5484 41.2951 41.6236 41.28 41.6947 41.28V43.28ZM42.8356 42.7447C43.0437 42.4846 43.2147 42.1376 43.2147 41.72H41.2147C41.2147 41.6499 41.2293 41.5909 41.2462 41.5486C41.2622 41.5087 41.277 41.4913 41.2738 41.4953L42.8356 42.7447ZM43.2147 41.72V38.08H41.2147V41.72H43.2147ZM43.2147 38.08C43.2147 37.7831 43.1462 37.4436 42.9284 37.1388C42.7072 36.829 42.401 36.6519 42.102 36.5622L41.5273 38.4778C41.495 38.4681 41.3889 38.4243 41.301 38.3012C41.2166 38.1831 41.2147 38.0836 41.2147 38.08H43.2147ZM42.1658 36.5837L32.5658 32.9837L31.8636 34.8563L41.4636 38.4563L42.1658 36.5837ZM32.545 32.9761C31.6795 32.6732 30.9993 32.1526 30.4794 31.3945L28.83 32.5255C29.5901 33.6341 30.6165 34.4201 31.8843 34.8639L32.545 32.9761ZM30.4794 31.3945C29.9523 30.6258 29.6947 29.7959 29.6947 28.88H27.6947C27.6947 30.2041 28.0771 31.4276 28.83 32.5255L30.4794 31.3945ZM29.6947 28.88V25.28H27.6947V28.88H29.6947ZM29.6947 25.28C29.6947 24.4637 29.8909 23.75 30.2722 23.1145L28.5572 22.0855C27.9785 23.05 27.6947 24.123 27.6947 25.28H29.6947ZM30.2722 23.1145C30.6677 22.4552 31.1899 21.933 31.8492 21.5375L30.8202 19.8225C29.8794 20.387 29.1216 21.1448 28.5572 22.0855L30.2722 23.1145ZM31.8368 21.5448C32.5103 21.1537 33.2303 20.96 34.0147 20.96V18.96C32.8791 18.96 31.8124 19.2462 30.8326 19.8152L31.8368 21.5448ZM34.0147 20.96H41.6947V18.96H34.0147V20.96ZM41.6947 20.96C42.479 20.96 43.1803 21.1535 43.8202 21.5375L44.8492 19.8225C43.8891 19.2465 42.8304 18.96 41.6947 18.96V20.96ZM43.8202 21.5375C44.4794 21.933 45.0016 22.4552 45.3972 23.1145L47.1122 22.0855C46.5477 21.1448 45.7899 20.387 44.8492 19.8225L43.8202 21.5375ZM45.3972 23.1145C45.7785 23.75 45.9747 24.4637 45.9747 25.28H47.9747C47.9747 24.123 47.6909 23.05 47.1122 22.0855L45.3972 23.1145ZM45.9747 25.28V26.36H47.9747V25.28H45.9747ZM45.9747 26.36C45.9747 26.5869 45.9051 26.7486 45.7342 26.9072L47.0951 28.3728C47.671 27.8381 47.9747 27.1465 47.9747 26.36H45.9747ZM45.7076 26.9329C45.5553 27.0851 45.3861 27.16 45.1347 27.16V29.16C45.8967 29.16 46.5807 28.8882 47.1218 28.3471L45.7076 26.9329ZM45.1347 27.16H44.0547V29.16H45.1347V27.16ZM44.0547 27.16C43.802 27.16 43.6046 27.0832 43.4151 26.9072L42.0542 28.3728C42.6114 28.8902 43.2941 29.16 44.0547 29.16V27.16ZM43.4418 26.9329C43.2896 26.7807 43.2147 26.6114 43.2147 26.36H41.2147C41.2147 27.122 41.4865 27.806 42.0276 28.3471L43.4418 26.9329ZM43.2147 26.36V25.28H41.2147V26.36H43.2147ZM43.2147 25.28C43.2147 24.9568 43.1412 24.5282 42.8175 24.1795C42.4808 23.817 42.042 23.72 41.6947 23.72V25.72C41.6941 25.72 41.5152 25.7164 41.3519 25.5404C41.2015 25.3785 41.2147 25.2298 41.2147 25.28H43.2147ZM41.6947 23.72H34.0147V25.72H41.6947V23.72ZM34.0147 23.72C33.5971 23.72 33.2501 23.891 32.99 24.0991L34.2394 25.6609C34.2434 25.6577 34.226 25.6725 34.1861 25.6885C34.1438 25.7054 34.0848 25.72 34.0147 25.72V23.72ZM32.9076 24.1729C32.6011 24.4794 32.4547 24.8726 32.4547 25.28H34.4547C34.4547 25.3127 34.4488 25.3672 34.4232 25.4314C34.397 25.4968 34.3593 25.5496 34.3218 25.5871L32.9076 24.1729ZM32.4547 25.28V28.88H34.4547V25.28H32.4547ZM32.4547 28.88C32.4547 29.1733 32.5156 29.5141 32.7226 29.8247C32.9384 30.1484 33.2482 30.3421 33.5673 30.4378L34.142 28.5222C34.1945 28.5379 34.3043 28.5916 34.3867 28.7153C34.4604 28.8259 34.4547 28.9067 34.4547 28.88H32.4547ZM33.5048 30.4168L43.1448 34.0168L43.8445 32.1432L34.2045 28.5432L33.5048 30.4168ZM43.1568 34.0212C43.994 34.3217 44.6657 34.841 45.19 35.6055L46.8394 34.4745C46.0837 33.3724 45.0753 32.5849 43.8326 32.1388L43.1568 34.0212ZM45.19 35.6055C45.72 36.3786 45.9747 37.1959 45.9747 38.08H47.9747C47.9747 36.7774 47.5893 35.5681 46.8394 34.4745L45.19 35.6055ZM45.9747 38.08V41.72H47.9747V38.08H45.9747Z" fill="black"/>
</svg>
