<?xml version="1.0" standalone="no"?>
<!DOCTYPE svg PUBLIC "-//W3C//DTD SVG 20010904//EN"
 "http://www.w3.org/TR/2001/REC-SVG-20010904/DTD/svg10.dtd">
<svg version="1.0" xmlns="http://www.w3.org/2000/svg"
 width="700.000000pt" height="700.000000pt" viewBox="0 0 700.000000 700.000000"
 preserveAspectRatio="xMidYMid meet">
<metadata>
Created by potrace 1.14, written by Peter Selinger 2001-2017
</metadata>
<g transform="translate(0.000000,700.000000) scale(0.100000,-0.100000)"
fill="#000000" stroke="none">
<path d="M3469 6982 c-8 -9 -47 -46 -85 -82 -154 -143 -297 -276 -308 -285 -6
-5 -70 -64 -141 -130 -71 -66 -135 -124 -141 -130 -7 -5 -36 -33 -65 -60 -30
-28 -90 -84 -134 -125 -44 -40 -110 -101 -146 -134 -36 -34 -90 -83 -120 -111
-30 -27 -88 -81 -129 -120 -41 -38 -127 -117 -189 -175 -63 -58 -131 -121
-152 -140 -20 -19 -61 -57 -90 -84 -30 -27 -101 -93 -159 -147 -58 -53 -114
-106 -126 -116 -12 -10 -72 -65 -134 -123 -62 -58 -125 -116 -140 -130 -27
-24 -232 -215 -254 -235 -6 -6 -67 -62 -136 -125 -69 -63 -137 -126 -151 -140
-31 -29 -96 -89 -239 -222 -58 -53 -119 -109 -136 -125 -16 -15 -83 -77 -148
-138 -65 -60 -122 -111 -127 -113 -5 -2 -9 -8 -9 -13 0 -5 155 -9 378 -9 l377
0 27 23 c24 21 184 168 279 257 48 45 212 197 252 232 l30 28 41 -37 c23 -20
61 -56 86 -79 25 -23 61 -56 80 -74 19 -18 85 -78 145 -135 61 -56 137 -126
169 -156 74 -68 88 -80 227 -210 63 -58 131 -121 152 -138 l37 -33 0 -632 0
-631 -364 0 -364 -1 2 136 c2 172 -7 240 -41 302 -32 59 -99 121 -163 152 -40
19 -62 21 -195 21 -133 0 -155 -2 -195 -22 -69 -33 -136 -97 -167 -161 -28
-57 -28 -57 -31 -294 -4 -319 16 -424 109 -569 108 -166 270 -283 456 -328 71
-18 123 -19 589 -20 l511 0 94 25 c237 63 438 253 516 489 26 79 27 85 30 405
2 179 5 340 6 357 l2 32 67 -63 68 -63 -2 -1040 -1 -1040 54 -51 c30 -27 70
-64 89 -82 19 -18 79 -73 133 -124 55 -50 111 -102 126 -116 15 -14 53 -49 84
-78 l57 -54 0 716 0 715 23 -5 c12 -3 42 -9 67 -14 51 -11 1123 -8 1158 3 12
4 31 9 43 12 78 17 190 75 269 138 85 69 152 153 201 252 69 141 73 170 73
525 0 274 -2 325 -18 390 -38 153 -143 316 -264 410 -53 41 -197 120 -219 120
-5 0 -91 32 -193 71 -102 39 -195 73 -207 76 -13 3 -23 8 -23 12 0 6 62 64
220 209 44 40 44 40 70 22 14 -10 47 -25 75 -34 66 -23 253 -24 328 -2 104 30
199 129 223 232 15 64 11 301 -6 363 -11 41 -10 45 16 72 16 16 31 28 35 27 6
-3 120 -107 247 -225 46 -44 223 -207 296 -274 l58 -54 375 0 c206 0 377 3
379 6 2 4 -38 44 -88 90 -50 46 -103 95 -118 109 -15 14 -74 68 -130 120 -57
52 -110 102 -119 110 -9 9 -72 67 -141 130 -69 63 -139 129 -156 145 -17 17
-65 60 -106 98 -41 37 -95 86 -119 110 -25 23 -96 89 -159 147 -63 58 -124
114 -136 125 -11 11 -48 45 -80 75 -203 188 -281 261 -300 277 -12 10 -70 64
-130 120 -60 55 -122 113 -139 128 -16 16 -81 76 -144 134 -63 58 -122 113
-131 121 -10 8 -68 62 -130 120 -62 58 -125 116 -140 130 -15 14 -69 63 -119
110 -51 47 -96 86 -100 88 -4 1 -8 -156 -8 -349 l0 -352 41 -37 c23 -21 55
-50 71 -65 17 -15 80 -74 140 -130 61 -56 122 -113 136 -126 15 -13 71 -65
125 -115 55 -51 113 -104 129 -119 131 -121 245 -229 242 -231 -2 -2 -28 6
-58 17 -117 45 -163 48 -729 45 -294 -1 -548 -6 -565 -10 -16 -4 -38 -9 -47
-12 -17 -5 -18 47 -18 993 l0 999 -22 18 c-13 11 -73 66 -134 123 -61 57 -113
103 -115 102 -2 0 -11 -8 -20 -17z m-250 -2353 l0 -1402 -27 24 c-14 13 -46
42 -69 64 l-43 40 -2 595 c-3 586 -3 596 -25 642 -30 66 -93 130 -160 163 -54
27 -67 29 -193 31 -114 1 -143 -1 -192 -19 -76 -27 -146 -90 -183 -163 l-30
-59 -5 -227 -5 -227 -40 36 c-22 19 -87 79 -145 133 -58 54 -116 108 -130 120
-14 12 -80 74 -148 137 l-122 116 32 29 c38 34 214 196 308 284 36 33 88 81
115 106 28 26 71 66 96 90 26 24 66 61 90 83 86 78 294 270 326 300 17 16 51
48 75 70 24 22 95 88 158 147 63 58 129 118 145 134 17 15 61 56 98 90 38 35
70 64 72 64 2 0 3 -631 4 -1401z m1299 -702 c-102 -96 -264 -246 -312 -289
l-39 -35 -71 27 -71 27 -3 172 -2 171 287 0 288 0 -77 -73z m-103 -1255 l390
-147 0 -170 0 -170 -389 0 c-251 0 -390 4 -392 10 -1 5 -5 45 -7 87 -8 128
-75 230 -186 286 l-59 29 65 59 c35 33 90 82 121 111 31 29 59 52 62 52 3 0
181 -66 395 -147z"/>
</g>
</svg>
